<?xml version="1.0" standalone="no"?>
<!DOCTYPE svg PUBLIC "-//W3C//DTD SVG 20010904//EN"
 "http://www.w3.org/TR/2001/REC-SVG-20010904/DTD/svg10.dtd">
<svg version="1.0" xmlns="http://www.w3.org/2000/svg"
 width="547.000000pt" height="547.000000pt" viewBox="0 0 547.000000 547.000000"
 preserveAspectRatio="xMidYMid meet">
<metadata>
Created by potrace 1.11, written by Peter Selinger 2001-2013
</metadata>
<g transform="translate(0.000000,547.000000) scale(0.100000,-0.100000)"
fill="#000000" stroke="none">
<path d="M5102 4140 c-4 -3 -9 -18 -10 -35 -31 -293 -179 -446 -449 -464 -10
-1 -13 -69 -13 -305 l0 -303 168 -1 c92 0 177 -1 190 -1 l22 -1 0 -820 0 -820
28 -1 c124 -4 414 0 420 5 8 9 11 2745 2 2747 -18 4 -352 3 -358 -1z"/>
<path d="M715 3614 c-210 -45 -304 -93 -421 -212 -187 -189 -286 -489 -288
-872 -1 -277 16 -416 76 -615 85 -283 243 -461 478 -539 103 -33 126 -37 270
-42 228 -6 396 59 541 212 97 103 162 215 213 368 42 126 62 115 -205 113
l-231 -2 -13 -38 c-62 -182 -294 -260 -460 -155 -117 74 -201 244 -207 418
l-3 74 589 0 588 0 -6 151 c-4 82 -9 164 -11 180 -2 17 -7 54 -10 84 -30 245
-115 484 -218 615 -58 73 -71 87 -131 132 -121 92 -225 125 -401 129 -71 2
-139 1 -150 -1z m170 -459 c124 -21 222 -133 265 -301 20 -78 26 -163 13 -165
-11 -1 -654 -1 -675 0 -15 1 -17 8 -12 49 16 146 70 268 151 343 31 28 68 55
82 61 36 13 103 26 121 23 8 -2 33 -6 55 -10z"/>
<path d="M2395 3610 c-22 -5 -57 -11 -79 -14 -99 -16 -240 -91 -318 -171 -73
-74 -142 -209 -163 -320 -14 -74 -25 -164 -25 -205 l0 -45 209 0 209 0 11 55
c23 116 81 204 157 240 67 31 188 35 270 9 77 -24 138 -79 154 -141 25 -90 -2
-197 -60 -239 -28 -21 -119 -55 -170 -64 -439 -77 -592 -141 -709 -292 -53
-69 -88 -156 -117 -293 -12 -59 -12 -288 1 -356 44 -229 164 -366 370 -425 32
-9 99 -14 185 -14 115 0 147 4 214 24 93 29 202 97 264 164 23 26 42 46 43 44
1 -1 7 -39 14 -85 7 -46 15 -86 19 -89 8 -9 388 -10 406 -2 14 6 15 96 14 771
-1 419 -4 777 -7 793 -4 17 -9 48 -11 70 -5 38 -10 59 -21 105 -3 11 -7 28 -9
38 -23 97 -98 225 -173 291 -67 60 -209 126 -313 144 -89 16 -296 20 -365 7z
m442 -1327 c-6 -185 -13 -217 -63 -314 -71 -136 -190 -218 -325 -224 -166 -8
-241 69 -241 247 0 182 99 277 347 333 112 26 227 71 256 99 13 13 26 24 27
25 2 1 1 -74 -1 -166z"/>
<path d="M4265 3605 c-28 -6 -73 -22 -100 -35 -64 -31 -174 -139 -214 -210
l-31 -55 -1 50 c0 28 0 85 1 128 l1 77 -58 1 c-72 1 -298 1 -339 0 l-30 -1 0
-1085 c0 -977 1 -1085 15 -1086 21 -1 390 -1 418 0 l21 1 2 618 c0 339 2 626
4 637 22 143 49 210 110 282 66 76 166 115 298 116 l68 1 0 288 0 289 -57 -2
c-32 -1 -81 -7 -108 -14z"/>
</g>
</svg>
