<svg width="47" height="54" viewBox="0 0 47 54" fill="none"
    xmlns="http://www.w3.org/2000/svg">
    <mask id="mask0" mask-type="alpha" maskUnits="userSpaceOnUse" x="0" y="0" width="47" height="54">
        <path d="M21.0238 0.37591C20.3096 0.420076 19.5993 0.528717 18.905 0.705703C18.2711 0.867215 17.6433 1.05548 17.0113 1.22602C11.1249 2.75861 6.62965 6.17163 3.43755 11.3738C0.554224 16.0715 -0.425072 21.1629 0.163597 26.5933C0.674911 31.3094 2.78693 35.3098 5.79158 38.8734C8.4637 42.0427 11.6128 44.6662 15.0655 46.9444C18.647 49.3075 22.4608 51.1563 26.5507 52.4368C27.5605 52.7527 28.5979 52.9442 29.634 53.1425C29.8554 53.1847 30.0965 53.2253 30.2493 52.998C30.3748 52.8117 30.3254 52.6193 30.2419 52.4419C30.1523 52.2521 30.0265 52.0815 29.8927 51.9194C29.2058 51.088 28.7041 50.1502 28.2817 49.163C27.7842 47.9996 27.9627 46.7165 29.6038 46.2884C33.884 45.1714 37.4305 42.8006 40.3314 39.4856C44.5061 34.7147 46.4569 29.1021 46.1263 22.776C45.7758 16.0728 43.0662 10.4254 38.0089 6.00979C33.5935 2.15512 28.4624 0.322395 22.7391 0.322395C22.1729 0.322395 21.6016 0.340449 21.0238 0.37591Z" fill="white"/>
    </mask>
    <g mask="url(#mask0)">
        <path d="M47.7673 -1.28949L47.7664 22.394L41.1545 22.3439L41.0871 22.3436C39.5237 22.3436 37.9888 22.7685 36.6445 23.5745L35.031 24.5426L33.3494 22.6399C33.2139 22.4874 33.0624 22.3488 32.8978 22.2276C32.2754 21.7688 31.5127 21.5815 30.7504 21.6995C29.9878 21.8175 29.3163 22.2266 28.8599 22.8517L27.8052 24.2959L26.3819 19.0766C26.1322 18.1595 25.4043 17.4567 24.4805 17.243C23.8122 17.0895 23.124 17.2049 22.5424 17.5708C21.9608 17.9364 21.5564 18.5076 21.4027 19.1788L20.1191 24.7856L19.3288 21.2246C19.1013 20.2017 18.3393 19.379 17.3407 19.0783C16.6009 18.8548 15.8199 18.9341 15.1407 19.3017C14.4612 19.6688 13.9647 20.2794 13.7426 21.0219L12.8008 24.1705L12.1759 22.2721C11.7833 21.0815 10.6814 20.282 9.43315 20.282H7.70374C6.81752 20.282 6.09886 21.0035 6.09886 21.8939C6.09886 22.7843 6.81752 23.5058 7.70374 23.5058H9.20109L11.0313 29.0642C11.3651 30.0755 12.4567 30.6275 13.4652 30.2922C14.0607 30.0942 14.5238 29.6152 14.7039 29.0123L16.4632 23.1309L18.2199 31.0453C18.3319 31.5495 18.6323 31.9798 19.0669 32.2571C19.3792 32.4566 19.7342 32.5592 20.096 32.5592C20.2365 32.5592 20.3787 32.5437 20.5193 32.5121C21.2377 32.3509 21.8097 31.7812 21.9766 31.0578L23.9595 22.3971L25.0608 26.4346C25.2415 27.099 25.6697 27.6529 26.2654 27.9943C26.8612 28.335 27.5535 28.4224 28.215 28.2412C28.7716 28.0884 29.2662 27.7464 29.6078 27.2789L31.2133 25.08L32.6307 26.6832C33.6537 27.8389 35.3542 28.1026 36.6763 27.3102L38.2898 26.3424C39.1481 25.8276 40.1139 25.5606 41.1298 25.5677L47.7664 25.6178L47.7673 54.7873H-1.60449V-1.28949H47.7673Z" fill="#00BF69"/>
    </g>
</svg>
